<svg xmlns="http://www.w3.org/2000/svg" width="55" height="5">
    <path fill="currentColor" stroke="none" d="M3.8358252 1.05014093c-.1737357-.46672144-.6637365-.20638277-1.2993977.05570087-2.440652-.87014126-3.35430132 3.27403416-.81554295 3.316777a1.637 1.637 0 0 0 1.66928237-2.7666052c.31015735-.11596299.57613806-.25530166.44565829-.60587267ZM1.9982241 3.555781a1.087 1.087 0 0 1-.46009975-.7715421 1.027 1.027 0 0 0 1.25636111.23614987c.00510113.31578311-.48295657.49762832-.79626136.53539223Z" />
    <path fill="currentColor" stroke="none" d="m14.93564528.80330866-.04852313-.00681948c-.52487414-.27472194-.96334349-.11519255-1.11763807.25695551-.46335462.47311786-.68857932 1.37151578-.13648086 1.7399385a1.722 1.722 0 0 0 .5122306.99699138c.5905152 1.4674651 3.82753055.78836157 3.08163444-1.2836114.00311564-1.0568516-1.221123-2.40535624-2.29122298-1.70345451Zm-.05299343 2.44643326a1.866 1.866 0 0 1 .02013737-.4738085 1.364 1.364 0 0 0 .56666901-.43941123.44914947.44914947 0 1 0 .85495459.27566948c-.11317446.66875746-1.02578954.84647553-1.4416218.63655998Z" />
    <path fill="currentColor" stroke="none" d="M28.24585988 1.08709705a1.72 1.72 0 0 0-.17446385.08454209.451.451 0 0 0-.53081596.4717154 1.5 1.5 0 0 0 1.6571568 2.35656558c2.12131487-.00481691 2.82172923-1.39587576 2.13163566-2.06139501-.20004455-1.09146286-2.01368002-2.54299838-3.08351265-.85142806Zm1.20452961 1.38814748c-.04076155-.0764166-.10052554-.17570036-.13628759-.23020793a1.1 1.1 0 0 1 .05930375-.22796506c.19935962.29158317.13994353.28323278.07698384.45817299Z" />
    <path fill="currentColor" stroke="none" d="M45.12473856 1.12342003c-2.72248173-2.8526581-5.45680616 2.28277518-2.7899663 3.42605386a1.8 1.8 0 0 0 1.79271722-.22468864c.94967246.01127863 1.7582025-.72637453 1.41803763-1.61839744a1.255 1.255 0 0 0 .09104593-.51130483 1.419 1.419 0 0 0-.51183448-1.07166295Zm-2.2281302.6714386c.0174983-.01672749.0162297-.01488613 0 0Zm0 0-.0197572.0184297Zm-.08364826.15688522c.09611495-.20966382.1586999-.2382317.31381336-.24975624-.12988574.09787593-.24903375.19120197-.31367419.24876597Zm.44290112 1.04480792c-.00392896.0135854-.00365061.01160487.00013918-.00099027Zm.01689879.03065014.00347932-.0247567Z"/>
</svg>