<svg xmlns="http://www.w3.org/2000/svg" width="34.13" height="32.469" viewBox="0 0 34.13 32.469"><g data-name="Group 547"><path data-name="Path 701" d="m27.63 32.45-10.552-5.535-10.542 5.554 2-11.746-8.54-8.309 11.79-1.724L17.049 0l5.283 10.68 11.793 1.7-8.525 8.325Z" fill="#d9bf8d"/><path data-name="Path 702" d="M16.794 22.052c-.406-.058-.665-.433-.877-.782l-.42-.694.317-.24.42.694c.17.282.366.576.641.609a.657.657 0 0 0 .566-.4 2.756 2.756 0 0 0 .229-.9l.375.042-.019.194h-.008a2.72 2.72 0 0 1-.251.868 1.018 1.018 0 0 1-.934.613Z"/><path data-name="Path 703" d="M12.761 17.991a3.786 3.786 0 0 1-1.554-.6l.209-.408a3.445 3.445 0 0 0 1.765.575 1.989 1.989 0 0 0 1.527-.782l.281.3a2.367 2.367 0 0 1-1.838.956 3.261 3.261 0 0 1-.39-.041Z"/><path data-name="Path 704" d="M20.182 18.114a3.779 3.779 0 0 1-1.425-.865l.276-.365a3.445 3.445 0 0 0 1.639.873 1.989 1.989 0 0 0 1.64-.505l.225.34a2.367 2.367 0 0 1-1.976.622 3.249 3.249 0 0 1-.379-.1Z"/></g></svg>